<?xml version="1.0" ?><svg id="Layer_1" style="enable-background:new 0 0 32 32;" version="1.1" viewBox="0 0 32 32" xml:space="preserve" xmlns="http://www.w3.org/2000/svg" xmlns:xlink="http://www.w3.org/1999/xlink"><style type="text/css">
	.st0{fill:#F25949;}
	.st1{fill:#FFFFFF;}
</style><g id="Heart"><g><path class="st0" d="M27.537,5.826c-1.593-1.624-3.712-2.518-5.967-2.518c0,0,0,0-0.001,0c-2.073,0-4.033,0.756-5.574,2.141    c-1.547-1.362-3.5-2.109-5.565-2.117C8.165,3.35,6.088,4.193,4.507,5.78c-3.324,3.34-3.345,8.794-0.044,12.158l9.853,10.044    c0.448,0.458,1.047,0.71,1.685,0.71c0.638,0,1.236-0.252,1.685-0.71l9.853-10.044C30.813,14.599,30.813,9.166,27.537,5.826z     M22.213,6.348C22.37,6.31,22.5,6.31,22.57,6.31c1.171,0,2.275,0.468,3.112,1.319c0.941,0.965,1.412,2.287,1.294,3.629    c-0.046,0.52-0.482,0.912-0.995,0.912c-0.029,0-0.059-0.001-0.089-0.004c-0.55-0.048-0.957-0.534-0.908-1.084    c0.067-0.761-0.199-1.509-0.73-2.054c-0.45-0.458-1.041-0.713-1.664-0.718c-0.498,0.07-0.989-0.249-1.111-0.753    C21.348,7.02,21.677,6.479,22.213,6.348z"/><path class="st1" d="M21.479,7.557c0.122,0.504,0.613,0.824,1.111,0.753c0.623,0.005,1.214,0.261,1.664,0.718    c0.531,0.544,0.798,1.293,0.73,2.054c-0.049,0.55,0.358,1.036,0.908,1.084c0.03,0.002,0.06,0.004,0.089,0.004    c0.513,0,0.949-0.392,0.995-0.912c0.118-1.342-0.353-2.664-1.294-3.629C24.846,6.778,23.741,6.31,22.57,6.31    c-0.07,0-0.2,0-0.357,0.038C21.677,6.479,21.348,7.02,21.479,7.557z"/></g></g></svg>